
<svg id="favicon"
	 xmlns="http://www.w3.org/2000/svg" viewBox="0 0 16 16">
<style type="text/css">
	.st0{fill:#1D1D1B;stroke:#47DA23;stroke-miterlimit:10;}
	.st1{fill:#47DA23;}
	.st2{fill:none;stroke:#1D1D1B;stroke-miterlimit:10;}
	.st3{fill:#47DA23;stroke:#1D1D1B;stroke-miterlimit:10;}
</style>
<path class="st0" d="M11.5,15.5h-7c-2.2,0-4-1.8-4-4v-7c0-2.2,1.8-4,4-4h7c2.2,0,4,1.8,4,4v7C15.5,13.7,13.7,15.5,11.5,15.5z"/>
<g>
	<path class="st1" d="M12.98,13.27c0,0.04-0.05,0.06-0.16,0.08c-0.2,0.03-0.7,0.05-1.49,0.05c-0.68,0-1.15-0.02-1.39-0.05
		c-0.12-0.02-0.18-0.03-0.2-0.04c-0.03-0.02-0.07-0.07-0.11-0.16c-0.08-0.2-0.19-0.5-0.34-0.91c-0.2-0.52-0.52-1.29-0.95-2.3
		c-0.09-0.2-0.31-0.32-0.65-0.34c0.16,0.01-0.11,0.02-0.8,0.02c-0.08,0-0.12,0.13-0.12,0.4c0,0.35,0.03,0.88,0.1,1.59
		c0.06,0.7,0.1,1.23,0.1,1.59c0,0.09-0.02,0.14-0.07,0.16c-0.07,0-0.15,0.01-0.22,0.02c-0.31,0.02-0.79,0.03-1.44,0.03
		c-0.75,0-1.19-0.02-1.34-0.05c-0.15-0.03-0.23-0.11-0.23-0.24c0-0.57,0.03-1.44,0.08-2.59s0.08-2.02,0.08-2.6
		c0-2.2-0.05-3.92-0.15-5.16L3.68,2.65C3.67,2.56,3.75,2.5,3.92,2.47C4.09,2.43,4.89,2.4,6.31,2.37c0.96-0.02,1.73-0.03,2.3-0.03
		c1.19,0,2.16,0.27,2.91,0.8c0.85,0.6,1.27,1.48,1.27,2.62c0,0.76-0.11,1.37-0.33,1.82s-0.62,0.89-1.21,1.32
		c-0.12,0.08-0.18,0.16-0.18,0.23c0,0,0.32,0.65,0.95,1.96C12.66,12.41,12.98,13.13,12.98,13.27z M9.7,6.26
		c0-0.64-0.21-1.08-0.62-1.32C8.75,4.75,8.25,4.66,7.56,4.66c-0.5,0-0.76,0.08-0.79,0.23C6.74,5.06,6.72,5.57,6.72,6.42
		c0,0.12,0,0.3,0.01,0.53c0,0.23,0.01,0.41,0.01,0.52c0,0.03,0.08,0.05,0.25,0.08c0.32,0.05,0.65,0.07,1,0.07
		C9.13,7.62,9.7,7.17,9.7,6.26z"/>
</g>
</svg>
