<svg aria-hidden="true" style="position: absolute; width: 0; height: 0; overflow: hidden;" version="1.1" xmlns="http://www.w3.org/2000/svg" xmlns:xlink="http://www.w3.org/1999/xlink">
<defs>
<symbol id="round-txt" viewBox="0 0 31 32">
<path d="M12.722 1.814c-0.051-0.373 0.202-0.695 0.557-0.746s0.692 0.186 0.742 0.559v0.017c0.051 0.356-0.202 0.695-0.557 0.746-0.371 0.017-0.692-0.22-0.742-0.576z"></path>
<path d="M15.388 0.678l-0.54 0.136-0.135-0.559 0.894-0.254h0.456l-0.034 3.119-0.675-0.017 0.034-2.424z"></path>
<path d="M16.805 1.559c0.169-0.881 0.827-1.475 1.637-1.322 0.793 0.153 1.215 0.932 1.046 1.814s-0.827 1.475-1.637 1.322c-0.81-0.153-1.198-0.932-1.046-1.814zM18.813 1.932c0.101-0.542-0.084-1.017-0.489-1.085s-0.726 0.288-0.827 0.847c-0.101 0.559 0.084 1.017 0.489 1.085 0.388 0.068 0.726-0.288 0.827-0.847z"></path>
<path d="M20.129 2.254c0.354-0.814 1.147-1.237 1.89-0.915s0.962 1.186 0.607 2.017c-0.354 0.814-1.147 1.237-1.89 0.915s-0.962-1.203-0.607-2.017zM22.002 3.068c0.219-0.508 0.135-1.017-0.219-1.169-0.371-0.169-0.776 0.102-0.995 0.627-0.219 0.508-0.152 1 0.219 1.169 0.354 0.17 0.759-0.102 0.995-0.627z"></path>
<path d="M26.169 4l0.405 0.322-3.661 1.051-0.405-0.322 3.661-1.051zM23.689 3.034c0.27-0.339 0.726-0.441 1.080-0.153 0.354 0.271 0.371 0.729 0.101 1.085-0.27 0.339-0.725 0.441-1.080 0.153s-0.371-0.746-0.101-1.085zM24.499 3.661c0.135-0.17 0.152-0.373 0.017-0.491-0.152-0.119-0.337-0.034-0.456 0.136-0.135 0.17-0.152 0.373-0.017 0.491 0.152 0.119 0.337 0.034 0.456-0.136zM24.212 5.441c0.27-0.339 0.725-0.441 1.080-0.153 0.354 0.271 0.371 0.729 0.101 1.085-0.27 0.339-0.725 0.441-1.080 0.153s-0.371-0.746-0.101-1.085zM25.022 6.068c0.135-0.17 0.152-0.373 0.017-0.492-0.152-0.119-0.337-0.034-0.456 0.136-0.135 0.17-0.152 0.373-0.017 0.492 0.152 0.119 0.337 0.034 0.456-0.136z"></path>
<path d="M26.81 9.525l-0.506 0.22-0.253-0.492 0.995-0.525 0.118 0.22c0.472-0.017 0.995-0.271 1.502-0.542l0.186-0.102 0.894 1.712-1.569 0.831 0.152 0.288-1.029 0.458-0.253-0.492 0.489-0.254-0.725-1.322zM27.84 10.254l1.080-0.559-0.287-0.559-0.051 0.017c-0.354 0.186-0.725 0.356-1.114 0.39l0.371 0.712z"></path>
<path d="M28.953 11.186c0.658-0.186 1.333 0.186 1.519 0.898 0.202 0.712-0.169 1.373-0.827 1.559s-1.333-0.186-1.518-0.898c-0.202-0.712 0.169-1.373 0.827-1.559zM29.459 13c0.337-0.102 0.557-0.424 0.456-0.78-0.101-0.373-0.456-0.508-0.793-0.407s-0.557 0.424-0.455 0.78c0.118 0.373 0.455 0.508 0.793 0.407z"></path>
<path d="M30.927 14.153l0.034 0.678-0.945 0.695 1.029 0.593 0.034 0.678-2.345 0.136-0.034-0.678 1.417-0.085-0.995-0.61 0.911-0.695-1.4 0.085-0.034-0.661 2.328-0.136z"></path>
<path d="M29.375 17.339c0.506 0.085 0.675 0.508 0.59 1.051-0.034 0.237-0.101 0.407-0.186 0.559h0.034c0.27 0.034 0.456-0.102 0.506-0.441 0.034-0.254 0.017-0.441-0.034-0.661l0.523-0.085c0.068 0.271 0.101 0.542 0.051 0.932-0.051 0.356-0.186 0.61-0.388 0.746-0.203 0.153-0.473 0.186-0.776 0.136l-1.35-0.203 0.101-0.644 0.253 0.034c-0.152-0.186-0.236-0.424-0.186-0.746 0.084-0.424 0.388-0.746 0.861-0.678zM29.274 18.881l0.118 0.017c0.067-0.102 0.118-0.254 0.152-0.407 0.051-0.288-0.051-0.475-0.253-0.508-0.186-0.034-0.304 0.102-0.337 0.322-0.050 0.305 0.084 0.542 0.321 0.576z"></path>
<path d="M26.996 23.051l1.35-3.254 2.176 0.898-0.253 0.627-1.653-0.678-0.287 0.695 1.653 0.678-0.253 0.627-1.654-0.678-0.287 0.695 1.654 0.678-0.253 0.627-2.194-0.915z"></path>
<path d="M25.427 25.119l0.405-0.542 0.725 0.542 0.489-0.661-0.726-0.542 0.405-0.542 1.89 1.407-0.405 0.542-0.726-0.542-0.489 0.661 0.725 0.542-0.405 0.542-1.89-1.407z"></path>
<path d="M23.588 26.864l0.489-0.458 0.506 0.559 0.27-0.237-0.135-0.898 0.574-0.525 0.135 1.051c0.304-0.119 0.59-0.085 0.843 0.186 0.321 0.356 0.27 0.814-0.169 1.22l-0.911 0.831-1.603-1.729zM24.904 27.339l0.405 0.441 0.337-0.305c0.186-0.17 0.219-0.339 0.084-0.475s-0.304-0.119-0.489 0.051l-0.337 0.288z"></path>
<path d="M23.183 29.966l-0.607 0.288-0.422-0.864-0.337 1.237-0.692 0.339 0.354-1.254-1.485-0.831 0.709-0.339 0.962 0.542 0.135-0.424-0.253-0.508 0.607-0.288 1.029 2.102z"></path>
<path d="M19.741 28.356l-0.084 0.525c-0.101-0.034-0.219-0.034-0.304-0.017-0.118 0.034-0.169 0.085-0.186 0.203l1.502 2.051-0.675 0.186-0.928-1.424-0.084 1.695-0.675 0.186 0.253-2.576c0.051-0.509 0.186-0.729 0.574-0.831 0.236-0.068 0.422-0.051 0.607 0z"></path>
<path d="M16.889 30.746l0.877 1.102-0.709 0.051-0.489-0.661-0.388 0.712-0.692 0.051 0.709-1.203-0.911-1.153 0.709-0.051 0.523 0.695 0.422-0.763 0.692-0.051-0.742 1.271z"></path>
<path d="M12.874 29.39l0.658 0.085-0.101 0.898 0.81 0.102 0.101-0.898 0.658 0.085-0.27 2.339-0.658-0.085 0.101-0.898-0.81-0.102-0.101 0.898-0.658-0.085 0.27-2.339z"></path>
<path d="M10.444 28.644l0.641 0.203-0.236 0.729 0.337 0.119 0.709-0.576 0.742 0.237-0.844 0.644c0.253 0.203 0.371 0.475 0.253 0.831-0.152 0.441-0.557 0.644-1.147 0.458l-1.181-0.373 0.726-2.271zM10.697 30.034l-0.186 0.559 0.439 0.136c0.236 0.068 0.405 0.017 0.456-0.169s-0.051-0.322-0.287-0.407l-0.422-0.119z"></path>
<path d="M7.171 27.763c0.219 0.271 0.287 0.627 0.051 0.915-0.253 0.322-0.675 0.373-1.114 0.034l-0.844-0.661 1.4-1.797 0.27 0.203-0.506 0.661 0.489 0.39c0.337-0.085 0.675-0.186 0.995-0.271l0.321 0.254-1.063 0.271zM6.26 27.339l-0.523 0.678 0.557 0.441c0.27 0.203 0.523 0.203 0.675 0 0.169-0.22 0.084-0.491-0.152-0.678l-0.557-0.441z"></path>
<path d="M4.522 27.339l-0.219-0.254 0.979-0.881-1.805-0.051-0.27-0.305 1.367 0.051 0.304-1.593 0.27 0.305-0.236 1.305 0.692 0.034 0.405-0.373 0.219 0.254-1.704 1.509z"></path>
<path d="M3.881 23.407l-0.101-0.22c-0.388-0.017-0.86 0.085-1.552 0.424l-0.354 0.169-0.692-1.475 1.772-0.864-0.152-0.305 0.793-0.339 0.118 0.254-0.506 0.254 0.793 1.661 0.54-0.186 0.118 0.254-0.776 0.373zM3.088 21.746l-1.502 0.729 0.422 0.864 0.287-0.136c0.506-0.237 0.995-0.373 1.333-0.356l-0.54-1.102z"></path>
<path d="M3.071 21.051l-0.287 0.034c0-0.051 0-0.136-0.017-0.169-0.067-0.271-0.236-0.458-1.89-0.017l-0.186 0.051-0.405-1.559 2.193-0.576 0.084 0.322-1.907 0.508 0.236 0.915 0.051-0.017c1.704-0.458 1.974-0.186 2.075 0.22 0.034 0.085 0.051 0.22 0.051 0.288z"></path>
<path d="M1.485 17.763c-0.051 0.339-0.27 0.627-0.641 0.661-0.422 0.034-0.726-0.271-0.759-0.814l-0.084-1.068 2.261-0.153 0.017 0.339-0.81 0.051 0.051 0.627c0.287 0.186 0.574 0.373 0.861 0.576l0.034 0.424-0.928-0.644zM1.181 16.814l-0.861 0.068 0.051 0.712c0.017 0.339 0.202 0.525 0.456 0.508 0.27-0.017 0.422-0.254 0.405-0.576l-0.051-0.712z"></path>
<path d="M1.502 13.085c-0.607-0.186-0.979-0.831-0.793-1.475 0.135-0.407 0.371-0.61 0.658-0.746l0.152 0.271c-0.236 0.119-0.439 0.271-0.523 0.576-0.135 0.441 0.135 0.898 0.607 1.034 0.472 0.153 0.945-0.085 1.080-0.542 0.084-0.271 0-0.525-0.118-0.763l0.27-0.153c0.169 0.288 0.27 0.61 0.152 1.017-0.219 0.644-0.877 0.966-1.485 0.78z"></path>
<path d="M2.295 10.627c-0.591-0.305-0.827-0.966-0.54-1.525 0.304-0.593 0.962-0.695 1.552-0.373 0.034 0.017 0.051 0.034 0.101 0.051l-0.844 1.593c0.439 0.186 0.861 0 1.046-0.356 0.152-0.271 0.135-0.525 0.051-0.78l0.27-0.102c0.118 0.322 0.135 0.644-0.051 1.034-0.287 0.542-0.945 0.78-1.586 0.458zM3.020 8.949c-0.388-0.153-0.81-0.119-1.012 0.288-0.186 0.339-0.034 0.763 0.337 1.017l0.675-1.305z"></path>
<path d="M3.543 8.153c-0.574-0.458-1.080-0.949-0.726-1.678l0.557-1.17 0.27 0.136-0.54 1.153c-0.202 0.441-0.101 0.729 0.219 1.034-0.101-0.288-0.101-0.661 0.202-1.051 0.371-0.458 1.080-0.525 1.552-0.136 0.489 0.39 0.607 1.119 0.186 1.644-0.439 0.508-1.097 0.576-1.721 0.068zM4.876 6.695c-0.371-0.305-0.894-0.254-1.181 0.102-0.287 0.373-0.202 0.864 0.169 1.169s0.894 0.254 1.181-0.102c0.287-0.373 0.202-0.864-0.169-1.17z"></path>
<path d="M5.467 6.017c-0.422-0.508-0.405-1.203 0.067-1.61 0.506-0.441 1.147-0.271 1.586 0.237 0.017 0.017 0.051 0.051 0.067 0.102l-1.384 1.17c0.337 0.339 0.793 0.322 1.097 0.068 0.236-0.203 0.321-0.441 0.337-0.712l0.287 0.017c-0.017 0.339-0.118 0.661-0.439 0.932-0.472 0.39-1.164 0.339-1.62-0.203zM6.766 4.746c-0.304-0.288-0.709-0.407-1.046-0.119-0.304 0.254-0.321 0.695-0.067 1.068l1.114-0.949z"></path>
</symbol>
</defs>
</svg>
